<?xml version="1.0" encoding="utf-8"?>
<!-- Generator: Adobe Illustrator 13.0.0, SVG Export Plug-In . SVG Version: 6.00 Build 14948)  -->
<!DOCTYPE svg PUBLIC "-//W3C//DTD SVG 1.1//EN" "http://www.w3.org/Graphics/SVG/1.1/DTD/svg11.dtd">
<svg version="1.1" xmlns="http://www.w3.org/2000/svg" xmlns:xlink="http://www.w3.org/1999/xlink" x="0px" y="0px" width="576px"
	 height="100.8px" viewBox="0 0 576 100.8" enable-background="new 0 0 576 100.8" xml:space="preserve">
<g id="Guides">
</g>
<g id="Layer_1">
	<path fill="#C41230" d="M53.58,69.38c-0.952-0.853-2.171-0.593-4.661,0.652c-2.806,1.402-7.767,3.257-11.926,3.257
		c-2.807,0-4.762,0.05-7.768-1.003C16.046,67.676,9.881,57.503,9.881,41.969c0-14.031,9.861-26.81,19.444-30.469
		c2.756-1.052,5.011-1.302,7.917-1.302c5.714,0,11.877,2.906,13.281,3.708c1.402,0.802,3.207,0.901,3.958,0.551
		c0.752-0.351,1.002-0.2,1.854-1.804h1.003c0.2,2.104,0.15,17.088,0,18.993h-1.304c-1.653-5.513-3.392-10.18-7.016-14.282
		c-4.561-5.162-9.4-5.899-14.231-4.811c-3.558,0.801-6.213,3.858-7.667,8.219c-1.278,3.833-2.757,13.08-2.757,20.847
		c0,7.115,0.284,14.923,1.704,19.895c1.403,4.91,2.984,7.295,7.517,9.119c3.858,1.555,9.466,0.947,14.532-4.209
		c5.562-5.663,7.667-14.883,7.667-14.883h1.354c0.201,2.256-0.2,18.24-0.451,20.494h-1.353C54.932,71.034,54.452,70.159,53.58,69.38
		z M84.25,68.472c-1.119,1.324-2.682,2.104-4.561,2.104c-3.958,0-5.662-3.541-5.662-7.517c0-1.503-0.005-4.604,0.152-5.813
		c0.417-3.252,2.404-5.102,6.163-5.513c2.205-0.242,4.459-0.301,5.863-0.25v-1.955c-7.617,0.2-12.613,1.104-15.635,2.005
		c-5.212,1.554-8.223,5.042-8.92,8.719c-0.752,3.959,0.4,7.467,2.555,9.221c3.419,2.783,6.915,3.658,11.275,3.658
		c5.363,0,9.07-2.556,11.075-4.309c0,0,1.791,2.105,2.405,2.604c1.352,1.103,3.858,2.005,5.913,2.005
		c2.104,0,4.591-0.869,5.763-2.005c1.604-1.553,3.057-3.808,3.608-6.113l-1.253-0.351c-0.351,1.152-1.103,2.957-2.205,3.708
		c-0.854,0.582-1.795,0.347-2.505-1.052c-0.352-0.689-0.352-2.005-0.352-3.208V43.466c0-2.004-1.157-4.156-1.703-4.961
		c-0.953-1.403-3.024-3.538-8.168-4.96c-4.711-1.304-9.972-1.204-13.53-0.351c-3.311,0.791-9.472,3.407-9.472,9.22
		c0,3.309,2.908,5.512,5.664,5.512c2.755,0,5.712-2.203,5.712-5.411s-2.755-4.61-3.958-5.062c-1.202-0.451-0.144-1.39,0.05-1.502
		c1.203-0.701,2.756-1.653,6.465-1.653c4.659,0,7.216,1.052,7.216,7.216v8.018v1.955V63.36
		C86.205,64.802,85.462,67.038,84.25,68.472z M120.037,48.225c0-6.415,2.757-10.583,5.361-11.627c0.251-0.099,0.501,0.15,0.452,0.4
		c-0.111,0.551-0.902,1.055-0.902,3.409c0,3.206,2.806,6.113,6.314,6.113c3.257,0,6.214-3.056,6.214-6.264
		c0-3.908-2.407-7.066-7.167-7.066c-5.762,0-8.468,3.91-9.421,5.011c-0.348,0.404-0.752,0.603-0.752-0.2v-5.863
		c-0.794,0.804-2.957,2.205-5.112,2.205h-12.027v1.503h5.513v34.929h-5.813v1.503h23.553v-1.503h-6.213V48.225z M156.938,41.934
		c1.4-2.802,4.287-5.612,7.767-5.612c3.207,0,4.76,2.504,4.76,4.76v29.665h-5.01v1.528h21.547v-1.528h-4.56V44.39
		c0-2.994-1.052-5.776-3.057-7.717c-1.85-1.793-5.664-3.458-9.02-3.458c-2.907,0-5.798,1.018-8.369,2.604
		c-1.924,1.188-3.617,2.745-4.811,4.211c-0.45,0.551-0.852,0.425-0.852-0.276v-7.618c-0.796,0.804-2.958,2.205-5.112,2.205h-11.225
		v1.503h4.511v34.927h-4.811v1.505h21.649v-1.505h-5.011v-22.55C155.335,46.144,156.086,43.638,156.938,41.934z M199.396,49.638
		c0.051-1.804,0.101-5.011,0.151-7.867c0.028-1.607,0.165-3.957,0.852-5.061c0.81-1.299,2.255-2.104,4.16-2.104
		c1.804,0,2.941,0.731,3.708,2.155c0.588,1.091,0.905,3.105,0.901,4.811c-0.007,3.107,0.101,6.414,0.101,8.067H199.396l-0.251,1.954
		h23.653c0.101-1.002,0.113-3.205-0.702-5.762c-0.851-2.673-3.422-6.658-5.712-8.67c-2.906-2.555-7.116-4.21-11.727-4.21
		c-4.009,0-7.829,1.489-11.625,4.612c-4.509,3.707-7.116,9.971-7.116,16.235c0,5.261,1.739,10.438,5.712,14.481
		c2.909,2.958,8.801,5.062,14.033,5.062c5.261,0,10.065-2.002,13.38-6.113c2.111-2.623,3.357-5.563,4.209-8.971l-1.654-0.451
		c-1.303,3.909-2.825,6.599-4.812,8.82c-2.104,2.354-5.963,4.209-9.12,4.209c-2.957,0-5.062-1.152-6.515-3.407
		c-1.34-2.081-1.603-4.311-1.804-6.715c-0.201-2.405-0.201-5.313-0.201-9.121L199.396,49.638z M298.229,49.314
		c0.052-1.805,0.103-5.011,0.152-7.867c0.027-1.608,0.165-3.957,0.852-5.063c0.807-1.298,2.256-2.103,4.159-2.103
		c1.805,0,2.941,0.731,3.708,2.153c0.588,1.093,0.905,3.107,0.902,4.812c-0.008,3.107,0.099,6.414,0.099,8.067H298.229l-0.249,1.954
		h23.652c0.1-1.002,0.113-3.205-0.702-5.762c-0.851-2.673-3.422-6.657-5.712-8.669c-2.906-2.556-7.117-4.21-11.726-4.21
		c-4.01,0-7.83,1.488-11.628,4.61c-4.509,3.708-7.113,9.972-7.113,16.236c0,5.262,1.737,10.439,5.711,14.482
		c2.91,2.958,8.802,5.062,14.032,5.062c5.262,0,10.065-2.002,13.379-6.113c2.112-2.622,3.357-5.563,4.211-8.97l-1.655-0.451
		c-1.302,3.908-2.823,6.598-4.811,8.818c-2.104,2.356-5.963,4.21-9.12,4.21c-2.956,0-5.062-1.151-6.515-3.407
		c-1.34-2.08-1.603-4.31-1.805-6.715c-0.199-2.406-0.199-5.312-0.199-9.121L298.229,49.314z M229.666,74.654
		c-1.352,0.652-3.135,1.862-4.158,2.808c-1.408,1.296-2.757,3.558-2.757,5.762c0,2.706,1.303,5.513,3.909,7.518
		c3.475,2.672,8.136,3.858,13.332,3.858c4.033,0,8.43-1.164,11.325-3.157c3.159-2.175,5.279-4.826,6.715-8.369
		c0.728-1.794,1.353-5.262,1.353-7.717c0-2.205-0.65-4.761-1.553-6.515c-0.861-1.673-2.294-2.939-4.11-3.709
		c-1.652-0.7-3.757-1.052-6.214-1.052h-14.682c-1.906,0-3.526-0.474-4.21-1.403c-0.702-0.952-0.602-2.055,0.2-2.957
		c0.947-1.064,3.099-2.128,4.863-2.305c1.002-0.101,1.854-0.101,2.605,0c1.201,0.161,2.154,0.701,4.96,0.701
		c2.807,0,6.706-0.968,9.071-2.354c3.758-2.205,5.914-6.013,5.914-9.924c0-3.005-1.554-6.463-3.558-8.618
		c0.584-0.765,2.396-2.673,3.356-3.057c0.501-0.201,0.752,0.201,0.451,0.551c-0.739,0.862-1.167,2.563-0.4,4.109
		c0.768,1.547,2.136,2.556,4.159,2.556c2.205,0,3.959-1.803,3.959-4.009c0-1.654-0.855-3.065-2.354-4.109
		c-0.881-0.613-2.005-0.952-3.208-0.952c-1.354,0-2.707,0.552-3.658,1.052c-0.953,0.502-2.305,1.754-3.409,2.907
		c-2.655-1.903-5.962-3.308-10.022-3.308l0.151,1.203c2.305,0,3.307,1.103,3.909,2.455c0.626,1.411,0.651,2.735,0.651,5.111v7.518
		c0,2.104-0.222,3.385-0.852,4.861c-0.672,1.574-2.154,2.556-4.259,2.556s-3.559-1.054-4.26-2.857
		c-0.635-1.631-0.501-4.46-0.501-4.46v-7.565c0,0-0.15-3.158,0.802-5.163c0.458-0.964,1.764-2.455,4.51-2.455l-0.151-1.203
		c-4.309,0-7.566,1.304-10.375,3.358c-2.602,1.908-4.86,5.513-4.86,9.169c0,3.66,1.823,7.822,5.764,10.073
		c0.351,0.201,0.551,0.651,0.05,0.803c-4.964,1.489-7.519,5.111-7.519,9.57C224.605,69.433,226.744,72.511,229.666,74.654
		l2.107,0.702c0,0,16.035,0,17.139,0c2.105,0,3.396,0.162,4.71,0.902c1.791,1.009,2.405,2.505,2.405,4.309
		c0,2.606-1.553,5.813-3.507,7.818c-2.573,2.638-6.866,4.66-11.676,4.66c-4.51,0-8.034-1.435-10.475-3.859
		c-1.687-1.677-2.306-3.908-2.306-6.515c0-3.156,1.505-5.611,3.71-7.315L229.666,74.654z M280.757,32.138
		c-0.794,0.804-2.956,2.205-5.111,2.205H264.32v1.503h4.81v34.929h-5.01v1.503h21.148v-1.503h-4.511V32.138z M274.593,25.446
		c3.757,0,6.804-3.046,6.804-6.804s-3.046-6.804-6.804-6.804s-6.803,3.046-6.803,6.804S270.836,25.446,274.593,25.446z
		 M274.593,18.643 M402.71,70.435h-6.061V13.644h6.155v-1.798H382.56L368.2,53.148l-14.999-41.303h-21.647v1.805h6.474v50.028
		c0,3.457-1.038,4.399-1.666,5.121c-0.747,0.855-1.693,1.523-3.851,1.523h-1.203v1.909h16.598v-1.84h-1.063
		c-2.004,0-3.609-0.276-4.818-1.572c-0.923-0.991-1.732-3.801-1.732-5.755V15.509l20.592,56.724h2.755l19.428-56.313l-0.003,54.515
		h-6.578v1.798l26.225-0.001V70.435z M415.222,51.262h23.653c0.102-1.002,0.114-3.205-0.702-5.763
		c-0.852-2.673-3.423-6.657-5.713-8.67c-2.905-2.556-7.115-4.21-11.727-4.21c-4.009,0-7.829,1.489-11.626,4.612
		c-4.51,3.708-7.114,9.973-7.114,16.236c0,5.261,1.737,10.438,5.711,14.481c2.91,2.958,8.8,5.063,14.031,5.063
		c5.264,0,10.067-2.003,13.382-6.114c2.111-2.621,3.357-5.563,4.208-8.971l-1.652-0.45c-1.305,3.907-2.825,6.598-4.811,8.819
		c-2.106,2.355-5.964,4.209-9.121,4.209c-2.958,0-5.061-1.152-6.516-3.407c-1.341-2.08-1.604-4.31-1.803-6.716
		C415.222,57.977,415.222,55.069,415.222,51.262l0.251-1.954c0.049-1.805,0.098-5.012,0.149-7.867
		c0.029-1.608,0.164-3.958,0.854-5.063c0.807-1.299,2.254-2.105,4.159-2.105c1.802,0,2.941,0.731,3.708,2.156
		c0.586,1.091,0.904,3.106,0.901,4.81c-0.006,3.107,0.101,6.415,0.101,8.069h-9.872L415.222,51.262z M439.261,13.389l4.262-0.002
		v57.227l-5.104,0.002l0.002,1.628h21.74v-1.616h-4.959V9.509c-0.791,0.808-2.944,2.221-5.098,2.232l-10.84-0.002L439.261,13.389z
		 M463.064,13.389l4.262-0.002v57.227l-5.107,0.002l0.005,1.628h21.739v-1.616h-4.959V9.509c-0.788,0.808-2.945,2.221-5.099,2.232
		l-10.838-0.002L463.064,13.389z M504.128,34.499c3.917,0,7.094,1.498,7.094,11.752V59.28c0,10.256-3.177,12.054-7.094,12.054
		c-3.919,0-7.095-1.798-7.095-12.054V46.251C497.033,35.996,500.209,34.499,504.128,34.499l-0.147-1.478
		c-10.772,0-20.248,9.321-20.248,19.746c0,11.226,8.406,20.244,20.248,20.244c11.571,0,20.114-9.249,20.114-20.475
		c0-10.96-9.08-19.515-20.114-19.515L504.128,34.499z M542.647,41.927c1.403-2.804,4.289-5.613,7.769-5.613
		c3.209,0,4.761,2.505,4.761,4.761v29.665h-5.011v1.529h21.549v-1.529h-4.562V44.382c0-2.995-1.052-5.776-3.057-7.718
		c-1.849-1.791-5.662-3.457-9.019-3.457c-2.909,0-5.799,1.018-8.372,2.605c-1.922,1.186-3.616,2.744-4.81,4.209
		c-0.45,0.552-0.853,0.427-0.853-0.275v-7.617c-0.794,0.803-2.956,2.205-5.111,2.205h-11.226v1.503h4.512v34.928h-4.812v1.505
		h21.647v-1.505h-5.011V48.214C541.044,46.135,541.797,43.63,542.647,41.927z"/>
	<rect fill="none" width="576" height="100.8"/>
</g>
</svg>
