<svg width="32" height="32" viewBox="0 0 32 32" fill="none" xmlns="http://www.w3.org/2000/svg">
<rect width="32" height="32" rx="4.5" fill="url(#paint0_linear_2_45)"/>
<path fill-rule="evenodd" clip-rule="evenodd" d="M12.3856 4.21219C12.5967 5.29486 12.171 6.33174 11.3421 6.93404C10.7045 7.39739 10.3399 7.46231 9.00193 7.33862C7.54344 7.2037 5.77086 5.71944 4.76569 4.21236L12.3856 4.21219Z" fill="#4E2683" stroke="white" stroke-width="0.7"/>
<path fill-rule="evenodd" clip-rule="evenodd" d="M7.40081 27.6462C5.18376 26.3188 3.79481 24.4159 3.79481 22.3023C3.79481 18.2911 8.79782 15.0391 14.9691 15.0391C17.0815 15.0391 19.0717 15.4086 20.7567 16.0709C20.5466 16.5256 20.4502 17.0714 20.3958 17.5036C19.7908 17.3162 18.7922 17.1267 18.0131 17.1207C15.2696 17.0302 12.4127 17.9509 11.1808 20.7996C10.2206 22.856 10.6073 25.6288 12.0508 27.3113L12.3692 27.6738L12.3686 27.7118C11.0881 28.328 9.31714 28.4759 7.96763 27.8989L7.40081 27.6462Z" fill="#4E2683" stroke="white" stroke-width="0.7"/>
<path fill-rule="evenodd" clip-rule="evenodd" d="M21.1597 15.4805C22.3277 13.6573 24.4393 12.9988 25.4964 13.691C26.3286 14.2359 26.6833 15.228 26.3755 16.4376C26.3566 16.5116 26.2943 16.6911 26.3016 16.7532C26.323 16.9307 26.6063 16.7916 27.088 16.1507C27.1933 16.0109 27.5204 15.5177 27.7326 15.0573C27.7681 15.0329 27.8021 15.0715 27.8486 15.0728C28.1386 15.1177 28.4391 15.2135 28.7419 15.1956C29.3623 14.4906 30.7651 11.4795 31.091 10.2133C31.1346 10.0438 31.1616 9.96608 30.8643 9.73449C28.2989 7.73723 24.7479 6.68228 21.328 6.10646C21.328 6.10646 21.2661 6.10471 21.2648 6.06822C21.2628 5.99839 21.3419 5.9926 21.3884 5.9812C21.3884 5.9812 23.3447 6.04102 23.3765 6.04102C23.4086 6.04102 23.4602 6.02155 23.4812 5.99821C23.5026 5.97506 23.5195 5.86698 23.4739 5.82768C21.2294 4.73097 18.2539 3.65006 12.9924 4.10779L12.98 4.14551C13.1263 4.97309 12.8114 6.02506 12.5729 6.46858C12.091 7.36406 10.9654 8.12426 9.43515 8.05478C7.90485 7.98531 5.75204 6.81316 4.50571 5.00888L4.4249 4.98169C3.24458 5.2452 2.14394 5.66206 1.00692 6.09155L1 21.0828C2.4548 17.908 6.38888 15.22 11.2945 14.4371C15.0135 13.8439 18.4133 14.3054 20.8604 15.5368C20.8604 15.5368 20.9581 15.5951 21.0236 15.5791C21.1194 15.5565 21.1597 15.4805 21.1597 15.4805Z" fill="#4E2683" stroke="white" stroke-width="0.7"/>
<path fill-rule="evenodd" clip-rule="evenodd" d="M20.8122 25.7591C20.3145 24.6886 19.2795 23.945 18.1121 23.945C16.8582 23.945 15.7543 24.7821 15.3036 25.9832C14.3106 25.1398 13.6501 23.9282 13.6501 22.5746C13.6501 20.0282 15.8572 17.9637 18.5796 17.9637C19.206 17.9637 19.8061 18.0425 20.3573 18.242C20.4262 19.0261 20.8271 19.6603 21.4581 20.0159C22.9504 20.8575 24.1942 20.094 25.3075 18.5275C25.3075 18.5275 25.349 18.4524 25.387 18.4373C25.4455 18.4143 25.4933 18.4473 25.4992 18.5411C25.5153 18.9096 25.4147 19.2745 25.3376 19.6277C25.2269 19.9293 25.1509 20.2445 25.0289 20.533C25.2785 20.8432 25.5992 21.0919 25.8136 21.4267C24.722 23.1304 22.1925 25.0879 20.8122 25.7591Z" fill="#4E2683" stroke="white" stroke-width="0.7"/>
<defs>
<linearGradient id="paint0_linear_2_45" x1="16" y1="0" x2="16" y2="32" gradientUnits="userSpaceOnUse">
<stop stop-color="#4B2280"/>
<stop offset="1" stop-color="#2E0A5D"/>
</linearGradient>
</defs>
</svg>
